<svg width="148" height="26" viewBox="0 0 148 26" fill="none" xmlns="http://www.w3.org/2000/svg">
<path d="M46.9558 13.2378V11.6467C47.1806 11.6467 47.3752 11.6467 47.5719 11.6467C51.0934 11.6403 54.6127 11.6511 58.1342 11.6186C59.5718 11.6057 60.9705 11.3376 62.2135 10.5486C63.8218 9.52822 64.3471 7.99338 64.2282 6.18399C64.118 4.50863 63.2879 3.28292 61.7984 2.51117C60.3241 1.74807 58.7244 1.62053 57.1052 1.61837C53.921 1.61404 50.7346 1.61837 47.5503 1.61837C47.3687 1.61837 47.1871 1.61837 46.9666 1.61837V0.0770361C47.1115 0.0662273 47.2412 0.0489322 47.3709 0.0489322C51.0091 0.051094 54.6473 0.0294799 58.2834 0.072715C60.0258 0.0943325 61.7119 0.466154 63.2381 1.36328C65.4258 2.64952 66.2884 4.62537 66.0873 7.08544C65.8971 9.43959 64.6325 11.0544 62.4988 12.0186C62.3799 12.0726 62.2632 12.1288 62.073 12.2174C62.6415 12.4077 63.1452 12.5612 63.6402 12.7406C68.301 14.4332 68.5431 20.9963 65.2464 23.411C63.8369 24.4443 62.2351 24.9242 60.5273 25.0928C59.7447 25.1707 58.9557 25.2096 58.171 25.2117C54.6495 25.2247 51.1302 25.2161 47.6087 25.2161H46.9688V23.6466C47.185 23.6466 47.399 23.6466 47.613 23.6466C51.5863 23.6293 55.5596 23.6488 59.5307 23.5645C60.5489 23.5429 61.593 23.2856 62.5637 22.9527C64.4855 22.2912 65.482 20.8601 65.6182 18.8281C65.7868 16.3442 64.5871 14.4916 62.1962 13.8128C61.0807 13.495 59.8961 13.2897 58.7395 13.2681C55.0192 13.1989 51.2966 13.2378 47.5741 13.2335C47.3774 13.2335 47.1806 13.2335 46.9558 13.2335V13.2378Z" fill="white"/>
<path d="M75.8453 25.1859H74.0446V15.4018C74.2348 15.3932 74.4272 15.3759 74.6196 15.3737C77.7217 15.3651 80.8238 15.4148 83.9216 15.324C85.0587 15.2894 86.2325 15.0603 87.3047 14.682C90.0177 13.7286 91.464 11.3421 91.3429 8.34588C91.2694 6.53649 90.783 4.90653 89.4017 3.65487C88.2602 2.61939 86.8746 2.08112 85.3678 1.88872C84.341 1.75902 83.299 1.70281 82.2614 1.68984C79.73 1.66173 77.1986 1.6812 74.6671 1.6812H74.0446V0.0923054C74.1894 0.0771731 74.3321 0.0512316 74.4747 0.0512316C77.6439 0.0512316 80.813 0.0144807 83.98 0.0771716C85.7656 0.113921 87.5036 0.498712 89.099 1.36557C91.6564 2.75126 92.9988 4.92382 93.1761 7.80328C93.362 10.8384 92.5059 13.4519 89.8751 15.2224C89.1206 15.7304 88.243 16.0525 87.3631 16.4892C89.3995 19.3427 91.4661 22.2351 93.5911 25.2119C92.8929 25.2119 92.2919 25.24 91.6996 25.1924C91.5331 25.1794 91.3516 24.9654 91.2348 24.8011C89.4362 22.2978 87.6398 19.7924 85.8629 17.2739C85.6186 16.9259 85.383 16.807 84.9571 16.861C84.328 16.9432 83.6881 16.9583 83.0526 16.9626C80.8735 16.9734 78.6945 16.9669 76.5154 16.9669C76.0687 16.9669 75.8446 17.1983 75.8431 17.6609C75.8431 19.9567 75.8431 22.2524 75.8431 24.5482C75.8431 24.7471 75.8431 24.946 75.8431 25.1838L75.8453 25.1859Z" fill="white"/>
<path d="M17.3073 25.2251C18.4898 22.6548 19.6291 20.1774 20.7705 17.7001C23.3883 12.0125 26.0127 6.32924 28.6133 0.635182C28.8143 0.194184 29.05 0.0688055 29.5342 0.0169235C30.4659 -0.0846789 30.8831 0.269848 31.2679 1.11725C34.8348 8.96658 38.4558 16.79 42.0616 24.6198C42.1437 24.7971 42.2172 24.9787 42.3231 25.2251C41.7006 25.2251 41.1342 25.2554 40.5721 25.2057C40.4251 25.1927 40.2479 24.9592 40.17 24.7885C38.1553 20.3914 36.1492 15.988 34.1452 11.5845C32.792 8.61422 31.443 5.6418 30.0898 2.67156C30.0141 2.50726 29.9277 2.34946 29.8088 2.11815C29.6985 2.33216 29.612 2.48132 29.5407 2.63697C26.2073 9.98477 22.8695 17.3304 19.5491 24.6847C19.3653 25.0933 19.1621 25.29 18.6952 25.2381C18.2672 25.1905 17.8305 25.2273 17.3052 25.2273L17.3073 25.2251Z" fill="white"/>
<path d="M126.307 0.103027V1.66165H117.271V25.1729H115.477V1.70057H106.421V0.105191H126.307V0.103027Z" fill="white"/>
<path d="M1.85255 25.1964H0V12.4858H16.1044V14.1114H1.85038V25.1964H1.85255Z" fill="white"/>
<path d="M101.771 25.1927H100.017V0.0795898H101.771V25.1927Z" fill="white"/>
<path d="M147.15 11.666V13.2008H130.929V11.666H147.15Z" fill="white"/>
<path d="M16.1112 0.0693359V1.64951H0.0175781V0.0693359H16.1112Z" fill="white"/>
<path d="M130.935 1.6724V0.103027H147.156C147.156 0.559139 147.167 1.01958 147.145 1.47785C147.143 1.54486 147.001 1.63781 146.908 1.66159C146.782 1.69401 146.642 1.6724 146.508 1.6724C141.532 1.6724 136.555 1.6724 131.581 1.6724H130.937H130.935Z" fill="white"/>
<path d="M147.165 23.6367C147.165 24.0842 147.184 24.4992 147.152 24.9121C147.143 25.018 146.975 25.1304 146.856 25.1974C146.78 25.2407 146.659 25.2061 146.56 25.2061C141.551 25.2061 136.54 25.1974 131.532 25.2191C131.002 25.2212 130.851 25.0591 130.905 24.5684C130.937 24.2744 130.911 23.9718 130.911 23.6367H147.167H147.165Z" fill="white"/>
</svg>
